<svg width="466" height="1007" viewBox="0 0 466 1007" fill="none" xmlns="http://www.w3.org/2000/svg">
<circle cx="210.131" cy="210.131" r="210.131" transform="matrix(-0.5 0.866025 0.866025 0.5 210.131 432.628)" fill="#13161B"/>
<circle cx="196.743" cy="196.743" r="196.743" transform="matrix(-0.5 0.866025 0.866025 0.5 215.031 450.916)" fill="#F2F1F6"/>
<circle cx="210.131" cy="210.131" r="210.131" transform="matrix(-0.5 0.866025 0.866025 0.5 459.908 0)" fill="#13161B"/>
<circle cx="196.743" cy="196.743" r="196.743" transform="matrix(-0.5 0.866025 0.866025 0.5 464.809 18.2876)" fill="#F2F1F6"/>
<path d="M451.303 474.814L436.704 500.1L415.163 489.617C415.163 489.617 401.137 482.985 390.552 478.829C379.967 474.672 378.486 477.237 378.486 477.237L375.947 481.635C375.947 481.635 374.837 486.369 377.643 489.943C380.448 493.517 385.318 496.329 385.318 496.329C385.318 496.329 400.509 506.565 404.161 508.674C407.813 510.782 422.421 519.216 422.421 519.216L404.86 549.633" stroke="#13161B" stroke-width="16"/>
</svg>
