<svg width="79" height="65" viewBox="0 0 79 65" fill="none" xmlns="http://www.w3.org/2000/svg">
<path d="M21.9432 44.0162C9.84375 44.0162 0 34.1724 0 22.073C0 9.97353 9.84375 0.129776 21.9432 0.129776C34.0426 0.129776 43.8864 9.97305 43.8864 22.073C43.8864 34.1724 34.0426 44.0162 21.9432 44.0162ZM40.1945 22.073C40.1945 20.1412 39.8917 18.2797 39.3332 16.5311C37.7797 17.9173 36.8684 19.9072 36.8684 22.073C36.8684 24.2388 37.7797 26.2292 39.3332 27.6144C39.8917 25.8663 40.1945 24.0042 40.1945 22.073ZM33.1765 22.073C33.1765 18.4224 34.9083 15.1045 37.7965 13.0377C37.3361 12.2326 36.8155 11.466 36.2416 10.7435C32.6065 13.3347 30.4012 17.5515 30.4012 22.073C30.4012 26.5954 32.6065 30.8117 36.2416 33.4024C36.815 32.68 37.3356 31.9134 37.7965 31.1078C34.9083 29.0415 33.1765 25.7235 33.1765 22.073ZM3.69189 22.073C3.69189 32.1364 11.8793 40.3238 21.9432 40.3238C26.3907 40.3238 30.4709 38.7242 33.6408 36.071C29.315 32.7713 26.7093 27.6029 26.7093 22.073C26.7093 16.544 29.315 11.3761 33.6408 8.07495C30.4709 5.42175 26.3907 3.82166 21.9432 3.82166C11.8793 3.82166 3.69189 12.0091 3.69189 22.073Z" fill="#4A47FF"/>
<path d="M59.7464 34.3791C57.5037 37.9609 54.3305 40.866 50.5694 42.7804L47.8864 44.146L47.8864 0L50.5694 1.36553C54.3305 3.27949 57.5037 6.18455 59.7464 9.76637C62.0531 13.4506 63.2725 17.7063 63.2725 22.073C63.2725 26.4397 62.0531 30.6949 59.7464 34.3791ZM51.5782 6.30038L51.5782 37.8451C56.5785 34.2017 59.5806 28.3993 59.5806 22.073C59.5806 15.7466 56.5785 9.94373 51.5782 6.30038Z" fill="#4A47FF"/>
<path d="M71.9463 37.6934L71.9463 40.5303L71.2285 40.5303L71.2285 37.6934C71.2285 37.1009 71.1328 36.6201 70.9414 36.251C70.7454 35.8773 70.4811 35.6061 70.1484 35.4375C69.8158 35.2643 69.4421 35.1777 69.0273 35.1777C68.6217 35.1777 68.248 35.2643 67.9062 35.4375C67.5645 35.6061 67.291 35.8773 67.0859 36.251C66.8763 36.6201 66.7715 37.1009 66.7715 37.6934L66.7715 40.2363L76 40.2363L76 41.0771L66.0469 41.0771L66.0469 37.6934C66.0469 36.9642 66.1722 36.3512 66.4229 35.8545C66.6735 35.3532 67.0221 34.9749 67.4687 34.7197C67.9154 34.4645 68.4303 34.3369 69.0137 34.3369C69.6243 34.3369 70.1507 34.4645 70.5928 34.7197C71.0303 34.9749 71.3652 35.3509 71.5977 35.8477C71.8301 36.3444 71.9463 36.9596 71.9463 37.6934ZM72.6094 31.0283L72.6094 30.126L76 32.1768L76 33.0791L72.6094 31.0283ZM68.6035 30.1602L68.6035 27.2549L76 27.2549L76 28.0684L69.3008 28.0684L69.3008 30.1602C69.3008 30.5931 69.3737 30.9463 69.5195 31.2197C69.6608 31.4886 69.8477 31.6868 70.0801 31.8145C70.3125 31.9375 70.5609 31.999 70.8252 31.999C71.0758 31.999 71.3151 31.9443 71.543 31.835C71.7708 31.721 71.9577 31.5456 72.1035 31.3086C72.2448 31.0716 72.3154 30.764 72.3154 30.3857L72.3154 27.7744L73.0195 27.7744L73.0195 30.3857C73.0195 30.7731 72.9648 31.1172 72.8555 31.418C72.7461 31.7187 72.5934 31.974 72.3975 32.1836C72.1969 32.3887 71.9622 32.5459 71.6934 32.6553C71.4199 32.7601 71.126 32.8125 70.8115 32.8125C70.4925 32.8125 70.2008 32.7555 69.9365 32.6416C69.6676 32.5231 69.4329 32.3522 69.2324 32.1289C69.0319 31.901 68.877 31.623 68.7676 31.2949C68.6582 30.9622 68.6035 30.584 68.6035 30.1602ZM68.6035 23.7275L68.6035 22.9141L71.2695 23.0371C71.9805 23.069 72.598 23.1488 73.1221 23.2764C73.6416 23.3994 74.0859 23.5521 74.4551 23.7344C74.8197 23.9167 75.1273 24.1172 75.3779 24.3359C75.624 24.5501 75.8314 24.7689 76 24.9922L76 25.4365L75.3027 25.4229L75.2959 25.2178C75.1364 25.0856 74.9564 24.9489 74.7559 24.8076C74.5508 24.6618 74.3001 24.5228 74.0039 24.3906C73.7077 24.2585 73.3385 24.1445 72.8965 24.0488C72.4544 23.9531 71.9121 23.8893 71.2695 23.8574L68.6035 23.7275ZM68.6035 23.4609L68.6035 19.3662L76 19.3662L76 20.1797L69.3691 20.1797L69.3691 23.4609L68.6035 23.4609ZM75.2959 25.751L75.2959 18.5937L78.1738 18.5937L78.1738 19.4141L76 19.4141L76 24.9717L78.1738 24.9717L78.1738 25.751L75.2959 25.751ZM72.418 17.4658L72.1924 17.4658C71.6546 17.4658 71.1579 17.3883 70.7021 17.2334C70.2464 17.0785 69.8522 16.8574 69.5195 16.5703C69.1868 16.2786 68.9294 15.93 68.7471 15.5244C68.5602 15.1188 68.4668 14.6676 68.4668 14.1709C68.4668 13.6696 68.5602 13.2161 68.7471 12.8105C68.9294 12.4049 69.1868 12.0563 69.5195 11.7646C69.8522 11.473 70.2464 11.2497 70.7021 11.0947C71.1579 10.9398 71.6546 10.8623 72.1924 10.8623L72.418 10.8623C72.9557 10.8623 73.4525 10.9398 73.9082 11.0947C74.3594 11.2497 74.7513 11.473 75.084 11.7646C75.4167 12.0518 75.6764 12.3981 75.8633 12.8037C76.0456 13.2093 76.1367 13.6605 76.1367 14.1572C76.1367 14.6585 76.0456 15.112 75.8633 15.5176C75.6764 15.9232 75.4167 16.2718 75.084 16.5635C74.7513 16.8551 74.3594 17.0785 73.9082 17.2334C73.4525 17.3883 72.9557 17.4658 72.418 17.4658ZM72.1924 16.6523L72.418 16.6523C72.8236 16.6523 73.2087 16.5977 73.5732 16.4883C73.9333 16.3789 74.2546 16.2194 74.5371 16.0098C74.8151 15.8001 75.0339 15.5404 75.1934 15.2305C75.3529 14.9206 75.4326 14.5628 75.4326 14.1572C75.4326 13.7562 75.3529 13.403 75.1934 13.0977C75.0339 12.7878 74.8151 12.528 74.5371 12.3184C74.2546 12.1087 73.9333 11.9515 73.5732 11.8467C73.2087 11.7373 72.8236 11.6826 72.418 11.6826L72.1924 11.6826C71.7913 11.6826 71.4108 11.7373 71.0508 11.8467C70.6908 11.9515 70.3695 12.111 70.0869 12.3252C69.8044 12.5348 69.5811 12.7946 69.417 13.1045C69.2529 13.4144 69.1709 13.7699 69.1709 14.1709C69.1709 14.5719 69.2529 14.9274 69.417 15.2373C69.5811 15.5426 69.8044 15.8024 70.0869 16.0166C70.3695 16.2262 70.6908 16.3857 71.0508 16.4951C71.4108 16.5999 71.7913 16.6523 72.1924 16.6523ZM74.8789 5.0791L68.6035 2.13965L68.6035 1.32617L76 4.79199L76 5.36621L68.6035 8.8252L68.6035 8.01172L74.8789 5.0791ZM68.6035 8.26465L76 8.26465L76 9.07812L68.6035 9.07812L68.6035 8.26465ZM76 1.94824L68.6035 1.94824L68.6035 1.12793L76 1.12793L76 1.94824Z" fill="#13161B"/>
<path d="M11.5049 54.25V54.9531C11.5049 55.9199 11.3789 56.7871 11.127 57.5547C10.875 58.3223 10.5146 58.9756 10.0459 59.5146C9.58301 60.0537 9.02637 60.4668 8.37598 60.7539C7.72559 61.0352 7.00488 61.1758 6.21387 61.1758C5.42871 61.1758 4.71094 61.0352 4.06055 60.7539C3.41602 60.4668 2.85645 60.0537 2.38184 59.5146C1.90723 58.9756 1.53809 58.3223 1.27441 57.5547C1.0166 56.7871 0.887695 55.9199 0.887695 54.9531V54.25C0.887695 53.2832 1.0166 52.4189 1.27441 51.6572C1.53223 50.8896 1.89551 50.2363 2.36426 49.6973C2.83887 49.1523 3.39844 48.7393 4.04297 48.458C4.69336 48.1709 5.41113 48.0273 6.19629 48.0273C6.9873 48.0273 7.70801 48.1709 8.3584 48.458C9.00879 48.7393 9.56836 49.1523 10.0371 49.6973C10.5059 50.2363 10.8662 50.8896 11.1182 51.6572C11.376 52.4189 11.5049 53.2832 11.5049 54.25ZM9.29883 54.9531V54.2324C9.29883 53.5176 9.22852 52.8877 9.08789 52.3428C8.95312 51.792 8.75098 51.332 8.48145 50.9629C8.21777 50.5879 7.89258 50.3066 7.50586 50.1191C7.11914 49.9258 6.68262 49.8291 6.19629 49.8291C5.70996 49.8291 5.27637 49.9258 4.89551 50.1191C4.51465 50.3066 4.18945 50.5879 3.91992 50.9629C3.65625 51.332 3.4541 51.792 3.31348 52.3428C3.17285 52.8877 3.10254 53.5176 3.10254 54.2324V54.9531C3.10254 55.668 3.17285 56.3008 3.31348 56.8516C3.4541 57.4023 3.65918 57.8682 3.92871 58.249C4.2041 58.624 4.53223 58.9082 4.91309 59.1016C5.29395 59.2891 5.72754 59.3828 6.21387 59.3828C6.70605 59.3828 7.14258 59.2891 7.52344 59.1016C7.9043 58.9082 8.22656 58.624 8.49023 58.249C8.75391 57.8682 8.95312 57.4023 9.08789 56.8516C9.22852 56.3008 9.29883 55.668 9.29883 54.9531ZM19.8809 51.4902V53.1777H15.1875V51.4902H19.8809ZM15.6885 51.4902V61H13.5703V51.4902H15.6885ZM21.542 51.4902V61H19.415V51.4902H21.542ZM28.1953 51.4902V61H26.0684V51.4902H28.1953ZM31.3154 51.4902V53.1602H23.001V51.4902H31.3154ZM34.9189 57.9062L38.6543 51.4902H40.7725V61H38.6543V54.5752L34.9189 61H32.8008V51.4902H34.9189V57.9062ZM45.2988 51.4902V61H43.1807V51.4902H45.2988ZM51.5039 51.4902L47.2236 57.2119H44.8066L44.5254 55.2959H46.292L48.8584 51.4902H51.5039ZM49.0254 61L46.1602 56.8516L47.8301 55.6475L51.8115 61H49.0254ZM58.3242 59.0928V54.5576C58.3242 54.2178 58.2627 53.9248 58.1396 53.6787C58.0166 53.4326 57.8291 53.2422 57.5771 53.1074C57.3311 52.9727 57.0205 52.9053 56.6455 52.9053C56.2998 52.9053 56.001 52.9639 55.749 53.0811C55.4971 53.1982 55.3008 53.3564 55.1602 53.5557C55.0195 53.7549 54.9492 53.9805 54.9492 54.2324H52.8398C52.8398 53.8574 52.9307 53.4941 53.1123 53.1426C53.2939 52.791 53.5576 52.4775 53.9033 52.2021C54.249 51.9268 54.6621 51.71 55.1426 51.5518C55.623 51.3936 56.1621 51.3145 56.7598 51.3145C57.4746 51.3145 58.1074 51.4346 58.6582 51.6748C59.2148 51.915 59.6514 52.2783 59.9678 52.7646C60.29 53.2451 60.4512 53.8486 60.4512 54.5752V58.8027C60.4512 59.2363 60.4805 59.626 60.5391 59.9717C60.6035 60.3115 60.6943 60.6074 60.8115 60.8594V61H58.6406C58.541 60.7715 58.4619 60.4814 58.4033 60.1299C58.3506 59.7725 58.3242 59.4268 58.3242 59.0928ZM58.6318 55.2168L58.6494 56.5264H57.1289C56.7363 56.5264 56.3906 56.5645 56.0918 56.6406C55.793 56.7109 55.5439 56.8164 55.3447 56.957C55.1455 57.0977 54.9961 57.2676 54.8965 57.4668C54.7969 57.666 54.7471 57.8916 54.7471 58.1436C54.7471 58.3955 54.8057 58.627 54.9229 58.8379C55.04 59.043 55.21 59.2041 55.4326 59.3213C55.6611 59.4385 55.9365 59.4971 56.2588 59.4971C56.6924 59.4971 57.0703 59.4092 57.3926 59.2334C57.7207 59.0518 57.9785 58.832 58.166 58.5742C58.3535 58.3105 58.4531 58.0615 58.4648 57.8271L59.1504 58.7676C59.0801 59.0078 58.96 59.2656 58.79 59.541C58.6201 59.8164 58.3975 60.0801 58.1221 60.332C57.8525 60.5781 57.5273 60.7803 57.1465 60.9385C56.7715 61.0967 56.3379 61.1758 55.8457 61.1758C55.2246 61.1758 54.6709 61.0527 54.1846 60.8066C53.6982 60.5547 53.3174 60.2178 53.042 59.7959C52.7666 59.3682 52.6289 58.8848 52.6289 58.3457C52.6289 57.8418 52.7227 57.3965 52.9102 57.0098C53.1035 56.6172 53.3848 56.2891 53.7539 56.0254C54.1289 55.7617 54.5859 55.5625 55.125 55.4277C55.6641 55.2871 56.2793 55.2168 56.9707 55.2168H58.6318Z" fill="#13161B"/>
</svg>
