<svg width="216" height="489" viewBox="0 0 216 489" fill="none" xmlns="http://www.w3.org/2000/svg">
<rect x="157.527" y="288.417" width="168" height="324" rx="15.5" transform="rotate(150.605 157.527 288.417)" fill="#C8F2FF" fill-opacity="0.1" stroke="black" stroke-width="9"/>
<rect x="145.513" y="326.175" width="109" height="18" transform="rotate(150.605 145.513 326.175)" fill="#C8F2FF" fill-opacity="0.1" stroke="black" stroke-width="9"/>
<rect x="149.377" y="404.342" width="39" height="61" transform="rotate(150.605 149.377 404.342)" fill="#C8F2FF" fill-opacity="0.1" stroke="black" stroke-width="9"/>
<path d="M117.721 427.736C117.72 427.737 117.719 427.728 117.719 427.709C117.721 427.727 117.721 427.736 117.721 427.736ZM117.997 427.341C117.924 427.326 117.86 427.31 117.802 427.295C117.819 427.237 117.839 427.174 117.863 427.104C118.149 426.276 118.842 425.048 120.131 423.514C122.687 420.473 126.959 416.971 132.387 413.913C137.816 410.855 143.024 409.017 146.949 408.406C148.93 408.098 150.338 408.142 151.195 408.327C151.267 408.342 151.332 408.358 151.39 408.373C151.373 408.43 151.353 408.494 151.329 408.564C151.043 409.392 150.35 410.62 149.06 412.154C146.504 415.194 142.233 418.696 136.805 421.755C131.376 424.813 126.167 426.651 122.242 427.262C120.262 427.569 118.854 427.526 117.997 427.341ZM151.81 408.532C151.809 408.533 151.801 408.528 151.787 408.517C151.803 408.526 151.81 408.532 151.81 408.532ZM151.471 407.931C151.472 407.931 151.473 407.94 151.472 407.959C151.47 407.941 151.47 407.932 151.471 407.931ZM117.405 427.151C117.388 427.141 117.381 427.136 117.382 427.135C117.383 427.135 117.391 427.14 117.405 427.151Z" fill="#C8F2FF" fill-opacity="0.1" stroke="black" stroke-width="9"/>
<ellipse cx="134.5" cy="466.5" rx="12.5" ry="22.5" fill="black"/>
<path d="M122.823 446.942L122 465.95C122 465.95 145.585 469.451 146.408 468.951C147.23 468.451 146.956 455.446 146.956 455.446V445.942C146.956 444.442 145.585 436.438 145.585 436.438L143.939 428.435L141.746 421.933C139.25 421.334 138.115 418.767 136.535 413.93C135.898 411.67 136.809 411.428 134.615 410.428C132.421 409.427 132.912 410.429 132.09 410.929C131.267 411.43 127.759 416.43 127.759 416.43C127.759 416.43 126.936 423.433 125.537 427.935C124.138 432.438 123.373 441.311 122.823 446.942Z" fill="black"/>
</svg>
