<svg width="12" height="37" viewBox="0 0 12 37" fill="none" xmlns="http://www.w3.org/2000/svg">
<ellipse cx="5.85443" cy="26.462" rx="5.85443" ry="10.538" fill="black"/>
<path d="M0.385329 17.3019L0 26.2044C0 26.2044 11.0461 27.8443 11.4314 27.61C11.8168 27.3757 11.6883 21.2848 11.6883 21.2848V16.8337C11.6883 16.1309 11.0461 12.3826 11.0461 12.3826L10.2754 8.63426L9.24789 5.58877C8.07892 5.30845 7.54758 4.10629 6.80748 1.84047C6.50905 0.782015 6.93592 0.668803 5.90838 0.200325C4.88083 -0.268153 5.11082 0.200853 4.72549 0.435279C4.34017 0.669704 2.6973 3.0117 2.6973 3.0117C2.6973 3.0117 2.31197 6.29126 1.65665 8.39999C1.00133 10.5087 0.642981 14.6646 0.385329 17.3019Z" fill="black"/>
</svg>
