<svg width="48" height="48" viewBox="0 0 48 48" fill="none" xmlns="http://www.w3.org/2000/svg">
<path d="M44 24C44 35.045 35.045 44 24 44C12.955 44 4 35.045 4 24C4 12.955 12.955 4 24 4C35.045 4 44 12.955 44 24Z" fill="url(#paint0_linear_14_308)"/>
<path opacity="0.05" d="M10.119 23.4659C18.274 19.7709 27.852 15.7619 29.327 15.1819C32.579 13.9029 33.997 15.2099 33.775 17.2949C33.502 19.8499 32.208 27.2849 31.412 32.6119C30.946 35.7289 29.258 36.6839 27.353 35.4749C25.908 34.5579 20.94 31.3049 19.633 30.1929C18.742 29.4349 18.121 28.5849 18.753 27.7189C18.938 27.4659 19.411 26.9559 19.674 26.7019C20.993 25.4239 20.815 25.1489 19.22 26.2899C19.03 26.4259 17.928 27.2249 17.475 27.5269C16.365 28.2669 15.344 28.3069 13.613 27.7189C12.197 27.2379 10.837 26.8669 9.97904 26.4959C8.79404 25.9829 8.34004 24.2719 10.119 23.4659Z" fill="black"/>
<path opacity="0.07" d="M10.836 23.5911C18.408 20.2061 27.72 16.3271 29.082 15.7781C32.346 14.4601 33.547 15.2421 33.196 17.7891C32.87 20.1471 31.713 27.4431 30.902 32.3341C30.424 35.2131 29.028 35.8471 27.21 34.6711C26.071 33.9371 21.487 30.9171 20.375 30.0381C19.515 29.3591 18.624 28.5751 19.665 27.4401C20.013 27.0611 21.935 25.2061 23.372 23.8261C24.205 23.0251 23.908 22.6301 22.903 23.3181C21.06 24.5811 18.045 26.5801 17.507 26.9431C16.482 27.6331 15.519 27.7991 13.843 27.2721C12.522 26.8561 11.246 26.4531 10.581 26.1941C9.09498 25.6181 9.07498 24.3781 10.836 23.5911Z" fill="black"/>
<path d="M11.553 23.717C18.543 20.642 27.588 16.893 28.837 16.374C32.112 15.016 33.117 15.276 32.616 18.284C32.256 20.446 31.218 27.603 30.39 32.058C29.899 34.7 28.797 35.013 27.065 33.87C26.232 33.32 22.027 30.539 21.114 29.886C20.281 29.291 19.132 28.575 20.573 27.165C21.086 26.663 24.447 23.453 27.066 20.955C27.409 20.627 26.978 20.088 26.582 20.351C23.052 22.692 18.158 25.941 17.535 26.364C16.594 27.003 15.69 27.296 14.068 26.83C12.842 26.478 11.645 26.058 11.179 25.898C9.38401 25.282 9.81001 24.484 11.553 23.717Z" fill="white"/>
<defs>
<linearGradient id="paint0_linear_14_308" x1="9.858" y1="9.858" x2="38.142" y2="38.142" gradientUnits="userSpaceOnUse">
<stop stop-color="#33BEF0"/>
<stop offset="1" stop-color="#0A85D9"/>
</linearGradient>
</defs>
</svg>
